<?xml version="1.0" encoding="utf-8"?>
<!-- Generator: Adobe Illustrator 25.3.0, SVG Export Plug-In . SVG Version: 6.00 Build 0)  -->
<svg version="1.0" id="Capa_1" xmlns="http://www.w3.org/2000/svg" xmlns:xlink="http://www.w3.org/1999/xlink" x="0px" y="0px"
	 viewBox="0 0 128 128" enable-background="new 0 0 128 128" xml:space="preserve">
<g>
	
		<image overflow="visible" opacity="0.67" width="507" height="552" xlink:href="206B92D5.png"  transform="matrix(0.24 0 0 0.24 9.1496 -2.2172)">
	</image>
	<g>
		<g>
			<path fill="#BE1622" stroke="#EDEDED" stroke-width="5" stroke-miterlimit="10" d="M11.7,64c0-6.6-0.1-13.1,0-19.7
				c0.1-6.9,3.1-12.2,9-15.6C32,22,43.3,15.5,54.6,9.1c6.2-3.5,12.5-3.5,18.7,0c11,6.3,22,12.7,33,19c6.7,3.9,10,9.6,10,17.3
				c0,12.4,0,24.9,0,37.3c0,7.6-3.2,13.2-9.8,17c-11.2,6.4-22.3,12.9-33.4,19.3c-5.9,3.3-12,3.4-17.9,0.1
				c-11.5-6.5-22.9-13.1-34.3-19.8c-5.9-3.5-9-8.8-9-15.7C11.7,77,11.7,70.5,11.7,64z M68.3,54.6c0-4.8,0-9.7,0-14.5
				c0-2.8-1.8-4.8-4.3-4.9c-2,0-4.5,1.7-4.4,4.9c0.1,9.8,0,19.5,0,29.3c0,0.6,0,1.2,0.2,1.8c0.6,2,2.7,3.2,4.7,2.9
				c2.2-0.3,3.8-2.1,3.8-4.4C68.3,64.6,68.3,59.6,68.3,54.6z M64.1,82.6c-3.3,0-5.9,2.5-5.9,5.7c0,3.2,2.5,5.7,5.7,5.8
				c3.2,0,5.8-2.4,5.8-5.7C69.8,85.3,67.2,82.7,64.1,82.6z"/>
		</g>
	</g>
</g>
</svg>
