<?xml version="1.0" encoding="utf-8"?>
<!-- Generator: Adobe Illustrator 25.3.0, SVG Export Plug-In . SVG Version: 6.00 Build 0)  -->
<svg version="1.0" id="Capa_1" xmlns="http://www.w3.org/2000/svg" xmlns:xlink="http://www.w3.org/1999/xlink" x="0px" y="0px"
	 viewBox="0 0 128 128" enable-background="new 0 0 128 128" xml:space="preserve">
<g>
	<g>
		<path d="M121.2,63.9c0-9.7,0.3-19.5-0.1-29.2c-0.4-10.1-3.4-19.2-11.6-25.8C103.9,4.3,97.2,2.3,90,2.3c-17-0.1-33.9,0-50.9,0
			C21.4,2.2,9.3,13.1,7.3,30.7c-0.3,2.8-0.5,5.6-0.5,8.4c0,16.7-0.1,33.3,0,50c0,3.8,0.4,7.6,1.1,11.3c2.8,14.7,13.3,24.5,28.2,24.9
			c18.6,0.6,37.2,0.6,55.7,0c15.6-0.5,26.7-11.5,28.8-27.1c0.2-1.3,0.5-2.6,0.5-3.9C121.2,84.3,121.1,74.1,121.2,63.9
			C121.2,63.9,121.2,63.9,121.2,63.9z M63.9,87c9.4,0,18.8,0,28.2,0c3.1,0,5.1,1.9,5.1,4.6c0,2.8-1.9,4.8-4.9,4.8
			c-18.8,0-37.5,0.1-56.3-0.1c-1.5,0-3.5-1.3-4.4-2.6c-2-3.2,0.6-6.8,4.8-6.8C45.6,86.9,54.7,87,63.9,87z M63.8,31.3
			c9.3,0,18.5,0,27.8,0c3.4,0,5.5,1.7,5.5,4.5c0.1,2.9-2.1,4.9-5.6,4.9c-18.3,0-36.7,0-55,0c-3.8,0-5.5-1.6-5.5-4.8
			c0-3.2,1.7-4.7,5.6-4.7C45.7,31.3,54.7,31.3,63.8,31.3z M64.1,59.2c9.2,0,18.3,0,27.5,0c2.2,0,4.1,0.4,5.1,2.6
			c1.6,3.5-0.7,6.8-4.9,6.8c-18.2,0-36.5,0-54.7,0c-4.2,0-6-1.4-6-4.6c0-3.4,1.8-4.8,6.2-4.8C46.2,59.2,55.1,59.2,64.1,59.2z"/>
	</g>
</g>
</svg>
