<?xml version="1.0" encoding="utf-8"?>
<!-- Generator: Adobe Illustrator 25.3.0, SVG Export Plug-In . SVG Version: 6.00 Build 0)  -->
<svg version="1.0" id="Capa_1" xmlns="http://www.w3.org/2000/svg" xmlns:xlink="http://www.w3.org/1999/xlink" x="0px" y="0px"
	 viewBox="0 0 128 128" enable-background="new 0 0 128 128" xml:space="preserve">
<g>
	<g>
		<path d="M8.3,95.5c0.6,15.7,12.1,28.1,27.1,29.6c6.5,0.6,13.2,0.5,19.8,0.6c10.7,0.1,21.4,0.2,32.1,0c12.3-0.2,22.4-4.8,28.8-16.4
			c2.6-4.7,3.9-9.8,3.9-15.2c0.1-11.5,0.1-23.1,0.1-34.7c0-4.1-2.1-6.3-6.2-6.4c-6.6-0.1-13.2,0.1-19.8-0.4
			c-11.7-0.9-21.8-12-22.3-24.3c-0.2-6.2-0.1-12.5-0.2-18.7c0-5.2-2.1-7.3-7-7.3c-7.8,0-15.5,0-23.3,0C21,2.3,8.1,15.6,7.9,36.9
			c-0.1,9,0,18.1,0,27.1L8.3,95.5z M55.1,65.3c5.5,0,11.1,0,16.6,0c3.8,0,5.9,1.8,5.8,4.9c0,3-2.1,4.8-5.7,4.8
			c-11.1,0-22.1,0-33.2,0c-3.5,0-5.7-1.9-5.8-4.8c-0.1-2.8,2.3-4.9,5.7-4.9C44,65.3,49.5,65.3,55.1,65.3z M49.2,90
			c3.7,0,7.5-0.1,11.2,0c3.3,0.1,5.3,2.1,5.2,5c-0.1,2.9-2,4.6-5.2,4.6c-7.4,0-14.8,0-22.2,0c-3.3,0-5.5-2-5.4-4.8
			c0-2.8,2.2-4.8,5.4-4.9C41.9,89.9,45.5,90,49.2,90z"/>
		<path d="M79.8,17.5c0.2,4.5,0,9.2,0.7,13.6c1.3,7.4,7.7,12.7,14.8,12.9c6.8,0.1,13.6,0.2,20.3,0c1.3,0,3-1.1,3.8-2.3
			c1.1-1.5,0.1-3.1-1.1-4.4C107.9,26.2,97.4,15,86.7,4c-0.9-1-2.9-1.4-4.2-1.2C80.6,3,80,4.9,80,6.8c0,3.5,0,7.1,0,10.6
			C80,17.5,79.9,17.5,79.8,17.5z"/>
	</g>
</g>
</svg>
