<?xml version="1.0" encoding="utf-8"?>
<!-- Generator: Adobe Illustrator 25.3.0, SVG Export Plug-In . SVG Version: 6.00 Build 0)  -->
<svg version="1.0" id="Capa_1" xmlns="http://www.w3.org/2000/svg" xmlns:xlink="http://www.w3.org/1999/xlink" x="0px" y="0px"
	 viewBox="0 0 128 128" enable-background="new 0 0 128 128" xml:space="preserve">
<g>
	<g>
		<path d="M37.7,55.9c0-13.7,0-27.3,0-41c0-3.8-0.6-4.1-3.8-2.3C25.6,17.3,17.4,22,9.2,26.7c-4.8,2.7-7.3,6.9-7.3,12.4
			c-0.1,20,0,40,0,60c0,0.9,0.1,1.8,0.2,2.7c1.1,10.2,8.4,14.2,17.5,9.3c5.2-2.8,10.3-5.9,15.5-8.8c2-1.1,2.7-2.6,2.7-4.8
			C37.6,83.6,37.7,69.8,37.7,55.9z"/>
		<path d="M49.1,58.9c0,13.4,0.1,26.7,0,40.1c0,2.5,0.8,4,3.1,5.1c7.6,3.5,15.1,7.2,22.7,10.9c6,2.9,7.2,2.1,7.2-4.7
			c0-23.8,0-47.5,0-71.3c0-2.4-0.1-4.8,0-7.1c0.1-2.3-0.8-3.8-3-4.9c-8.1-3.9-16.1-8-24.1-12c-4-2-5.8-0.9-5.8,3.5
			C49.1,32,49.1,45.4,49.1,58.9z"/>
		<path d="M126.1,59.9c0-9.6,0-19.2,0-28.8c0-1.3,0-2.6-0.1-3.9c-0.8-8.8-8-13.1-15.9-9.3c-5.1,2.4-9.9,5.3-14.7,8.3
			c-1,0.6-1.9,2.4-1.9,3.6c-0.1,27.2-0.1,54.5-0.1,81.7c0,3.6,2.1,4.8,5.2,3.1c7-4,14.1-8,21.1-12.1c4.2-2.5,6.4-6.4,6.4-11.3
			C126.1,80.7,126.1,70.3,126.1,59.9z"/>
	</g>
</g>
</svg>
